<?xml version="1.0" encoding="us-ascii" standalone="no"?><svg xmlns="http://www.w3.org/2000/svg" xmlns:xlink="http://www.w3.org/1999/xlink" contentStyleType="text/css" height="526px" preserveAspectRatio="none" style="width:1152px;height:526px;background:#FFFFFF;" version="1.1" viewBox="0 0 1152 526" width="1152px" zoomAndPan="magnify"><defs/><g><!--cluster dart_weather_bridge--><g id="cluster_dart_weather_bridge"><path d="M8.5,6 L175.5,6 A3.75,3.75 0 0 1 178,8.5 L185,28.2969 L1142.5,28.2969 A2.5,2.5 0 0 1 1145,30.7969 L1145,516.5 A2.5,2.5 0 0 1 1142.5,519 L8.5,519 A2.5,2.5 0 0 1 6,516.5 L6,8.5 A2.5,2.5 0 0 1 8.5,6 " fill="none" style="stroke:#000000;stroke-width:1.5;"/><line style="stroke:#000000;stroke-width:1.5;" x1="6" x2="185" y1="28.2969" y2="28.2969"/><text fill="#000000" font-family="sans-serif" font-size="14" font-weight="bold" lengthAdjust="spacing" textLength="166" x="10" y="20.9951">dart_weather_bridge</text></g><!--cluster bridge_weather.dart--><g id="cluster_bridge_weather.dart"><path d="M32.5,49 L197.5,49 A3.75,3.75 0 0 1 200,51.5 L207,71.2969 L1118.5,71.2969 A2.5,2.5 0 0 1 1121,73.7969 L1121,492.5 A2.5,2.5 0 0 1 1118.5,495 L32.5,495 A2.5,2.5 0 0 1 30,492.5 L30,51.5 A2.5,2.5 0 0 1 32.5,49 " fill="none" style="stroke:#000000;stroke-width:1.5;"/><line style="stroke:#000000;stroke-width:1.5;" x1="30" x2="207" y1="71.2969" y2="71.2969"/><text fill="#000000" font-family="sans-serif" font-size="14" font-weight="bold" lengthAdjust="spacing" textLength="164" x="34" y="63.9951">bridge_weather.dart</text></g><!--class WeatherService--><g id="elem_WeatherService"><rect codeLine="3" fill="#F1F1F1" height="64.2969" id="WeatherService" rx="2.5" ry="2.5" style="stroke:#181818;stroke-width:0.5;" width="325" x="649.5" y="108.5"/><ellipse cx="750.75" cy="124.5" fill="#A9DCDF" rx="11" ry="11" style="stroke:#181818;stroke-width:1.0;"/><path d="M752.8281,126.3125 L753.2188,127.2969 L752.8281,127.2969 C752.375,127.2969 752.2656,127.3125 752.1094,127.4219 C751.8594,127.5781 751.7031,127.8594 751.7031,128.1563 C751.7031,128.4219 751.8438,128.6719 752.0625,128.8281 C752.2031,128.9531 752.4063,129 752.8281,129 L755.1875,129 C755.5469,129 755.7656,128.9688 755.9063,128.875 C756.1563,128.7344 756.3125,128.4375 756.3125,128.1563 C756.3125,127.875 756.1719,127.625 755.9531,127.4688 C755.7813,127.3281 755.625,127.2969 755.1563,127.2969 L751.7656,119.0938 L748.0938,119.0938 C747.6406,119.0938 747.5156,119.1094 747.3594,119.2031 C747.1094,119.375 746.9531,119.6563 746.9531,119.9375 C746.9531,120.2188 747.0938,120.4688 747.3125,120.6406 C747.4844,120.75 747.6563,120.7813 748.0938,120.7813 L749.1719,120.7813 L746.5313,127.2969 C746.1094,127.2969 745.9531,127.3125 745.7969,127.4219 C745.5469,127.5781 745.3906,127.8594 745.3906,128.1563 C745.3906,128.7188 745.7656,129 746.5156,129 L748.7813,129 C749.1406,129 749.3594,128.9688 749.4844,128.875 C749.75,128.7344 749.8906,128.4375 749.8906,128.1563 C749.8906,127.875 749.7656,127.625 749.5469,127.4531 C749.375,127.3281 749.2344,127.2969 748.7813,127.2969 L748.3906,127.2969 L748.7813,126.3125 L752.8281,126.3125 Z M752.125,124.6094 L749.4531,124.6094 L750.7969,121.3438 L752.125,124.6094 Z " fill="#000000"/><text fill="#000000" font-family="sans-serif" font-size="14" font-style="italic" lengthAdjust="spacing" textLength="114" x="771.25" y="129.3467">WeatherService</text><line style="stroke:#181818;stroke-width:0.5;" x1="650.5" x2="973.5" y1="140.5" y2="140.5"/><line style="stroke:#181818;stroke-width:0.5;" x1="650.5" x2="973.5" y1="148.5" y2="148.5"/><ellipse cx="660.5" cy="162.1484" fill="#84BE84" rx="3" ry="3" style="stroke:#038048;stroke-width:1.0;"/><text fill="#000000" font-family="sans-serif" font-size="14" lengthAdjust="spacing" textLength="299" x="669.5" y="165.4951">Future&lt;WeatherData&gt; getWeatherData()</text></g><!--class OpenMeteoService--><g id="elem_OpenMeteoService"><rect codeLine="7" fill="#F1F1F1" height="80.5938" id="OpenMeteoService" rx="2.5" ry="2.5" style="stroke:#181818;stroke-width:0.5;" width="325" x="779.5" y="257"/><ellipse cx="868.75" cy="273" fill="#ADD1B2" rx="11" ry="11" style="stroke:#181818;stroke-width:1.0;"/><path d="M871.0938,268.6719 C870.1563,268.2344 869.5625,268.0938 868.6875,268.0938 C866.0625,268.0938 864.0625,270.1719 864.0625,272.8906 L864.0625,274.0156 C864.0625,276.5938 866.1719,278.4844 869.0625,278.4844 C870.2813,278.4844 871.4375,278.1875 872.1875,277.6406 C872.7656,277.2344 873.0938,276.7813 873.0938,276.3906 C873.0938,275.9375 872.7031,275.5469 872.2344,275.5469 C872.0156,275.5469 871.8125,275.625 871.625,275.8125 C871.1719,276.2969 871.1719,276.2969 870.9844,276.3906 C870.5625,276.6563 869.875,276.7813 869.1094,276.7813 C867.0625,276.7813 865.7656,275.6875 865.7656,273.9844 L865.7656,272.8906 C865.7656,271.1094 867.0156,269.7969 868.75,269.7969 C869.3281,269.7969 869.9375,269.9531 870.4063,270.2031 C870.8906,270.4844 871.0625,270.7031 871.1563,271.1094 C871.2188,271.5156 871.25,271.6406 871.3906,271.7656 C871.5313,271.9063 871.7656,272.0156 871.9844,272.0156 C872.25,272.0156 872.5156,271.875 872.6875,271.6563 C872.7969,271.5 872.8281,271.3125 872.8281,270.8906 L872.8281,269.4688 C872.8281,269.0313 872.8125,268.9063 872.7188,268.75 C872.5625,268.4844 872.2813,268.3438 871.9844,268.3438 C871.6875,268.3438 871.4844,268.4375 871.2656,268.75 L871.0938,268.6719 Z " fill="#000000"/><text fill="#000000" font-family="sans-serif" font-size="14" lengthAdjust="spacing" textLength="138" x="889.25" y="277.8467">OpenMeteoService</text><line style="stroke:#181818;stroke-width:0.5;" x1="780.5" x2="1103.5" y1="289" y2="289"/><ellipse cx="790.5" cy="302.6484" fill="none" rx="3" ry="3" style="stroke:#038048;stroke-width:1.0;"/><text fill="#000000" font-family="sans-serif" font-size="14" lengthAdjust="spacing" textLength="220" x="799.5" y="305.9951">OpenMeteoApi openMeteoApi</text><line style="stroke:#181818;stroke-width:0.5;" x1="780.5" x2="1103.5" y1="313.2969" y2="313.2969"/><ellipse cx="790.5" cy="326.9453" fill="#84BE84" rx="3" ry="3" style="stroke:#038048;stroke-width:1.0;"/><text fill="#000000" font-family="sans-serif" font-size="14" lengthAdjust="spacing" textLength="299" x="799.5" y="330.292">Future&lt;WeatherData&gt; getWeatherData()</text></g><!--class OpenMeteoApi--><g id="elem_OpenMeteoApi"><rect codeLine="27" fill="#F1F1F1" height="80.5938" id="OpenMeteoApi" rx="2.5" ry="2.5" style="stroke:#181818;stroke-width:0.5;" width="373" x="661.5" y="398"/><ellipse cx="789.25" cy="414" fill="#ADD1B2" rx="11" ry="11" style="stroke:#181818;stroke-width:1.0;"/><path d="M791.5938,409.6719 C790.6563,409.2344 790.0625,409.0938 789.1875,409.0938 C786.5625,409.0938 784.5625,411.1719 784.5625,413.8906 L784.5625,415.0156 C784.5625,417.5938 786.6719,419.4844 789.5625,419.4844 C790.7813,419.4844 791.9375,419.1875 792.6875,418.6406 C793.2656,418.2344 793.5938,417.7813 793.5938,417.3906 C793.5938,416.9375 793.2031,416.5469 792.7344,416.5469 C792.5156,416.5469 792.3125,416.625 792.125,416.8125 C791.6719,417.2969 791.6719,417.2969 791.4844,417.3906 C791.0625,417.6563 790.375,417.7813 789.6094,417.7813 C787.5625,417.7813 786.2656,416.6875 786.2656,414.9844 L786.2656,413.8906 C786.2656,412.1094 787.5156,410.7969 789.25,410.7969 C789.8281,410.7969 790.4375,410.9531 790.9063,411.2031 C791.3906,411.4844 791.5625,411.7031 791.6563,412.1094 C791.7188,412.5156 791.75,412.6406 791.8906,412.7656 C792.0313,412.9063 792.2656,413.0156 792.4844,413.0156 C792.75,413.0156 793.0156,412.875 793.1875,412.6563 C793.2969,412.5 793.3281,412.3125 793.3281,411.8906 L793.3281,410.4688 C793.3281,410.0313 793.3125,409.9063 793.2188,409.75 C793.0625,409.4844 792.7813,409.3438 792.4844,409.3438 C792.1875,409.3438 791.9844,409.4375 791.7656,409.75 L791.5938,409.6719 Z " fill="#000000"/><text fill="#000000" font-family="sans-serif" font-size="14" lengthAdjust="spacing" textLength="109" x="809.75" y="418.8467">OpenMeteoApi</text><line style="stroke:#181818;stroke-width:0.5;" x1="662.5" x2="1033.5" y1="430" y2="430"/><line style="stroke:#181818;stroke-width:0.5;" x1="662.5" x2="1033.5" y1="438" y2="438"/><ellipse cx="672.5" cy="451.6484" fill="#84BE84" rx="3" ry="3" style="stroke:#038048;stroke-width:1.0;"/><text fill="#000000" font-family="sans-serif" font-size="14" lengthAdjust="spacing" textLength="347" x="681.5" y="454.9951">Future&lt;Map&lt;String, dynamic&gt;&gt; fetchWeather()</text><ellipse cx="672.5" cy="467.9453" fill="#84BE84" rx="3" ry="3" style="stroke:#038048;stroke-width:1.0;"/><text fill="#000000" font-family="sans-serif" font-size="14" lengthAdjust="spacing" textLength="299" x="681.5" y="471.292">Future&lt;WeatherData&gt; getWeatherData()</text></g><!--class OpenWeatherMapService--><g id="elem_OpenWeatherMapService"><rect codeLine="15" fill="#F1F1F1" height="80.5938" id="OpenWeatherMapService" rx="2.5" ry="2.5" style="stroke:#181818;stroke-width:0.5;" width="338" x="46" y="257"/><ellipse cx="118.75" cy="273" fill="#ADD1B2" rx="11" ry="11" style="stroke:#181818;stroke-width:1.0;"/><path d="M121.0938,268.6719 C120.1563,268.2344 119.5625,268.0938 118.6875,268.0938 C116.0625,268.0938 114.0625,270.1719 114.0625,272.8906 L114.0625,274.0156 C114.0625,276.5938 116.1719,278.4844 119.0625,278.4844 C120.2813,278.4844 121.4375,278.1875 122.1875,277.6406 C122.7656,277.2344 123.0938,276.7813 123.0938,276.3906 C123.0938,275.9375 122.7031,275.5469 122.2344,275.5469 C122.0156,275.5469 121.8125,275.625 121.625,275.8125 C121.1719,276.2969 121.1719,276.2969 120.9844,276.3906 C120.5625,276.6563 119.875,276.7813 119.1094,276.7813 C117.0625,276.7813 115.7656,275.6875 115.7656,273.9844 L115.7656,272.8906 C115.7656,271.1094 117.0156,269.7969 118.75,269.7969 C119.3281,269.7969 119.9375,269.9531 120.4063,270.2031 C120.8906,270.4844 121.0625,270.7031 121.1563,271.1094 C121.2188,271.5156 121.25,271.6406 121.3906,271.7656 C121.5313,271.9063 121.7656,272.0156 121.9844,272.0156 C122.25,272.0156 122.5156,271.875 122.6875,271.6563 C122.7969,271.5 122.8281,271.3125 122.8281,270.8906 L122.8281,269.4688 C122.8281,269.0313 122.8125,268.9063 122.7188,268.75 C122.5625,268.4844 122.2813,268.3438 121.9844,268.3438 C121.6875,268.3438 121.4844,268.4375 121.2656,268.75 L121.0938,268.6719 Z " fill="#000000"/><text fill="#000000" font-family="sans-serif" font-size="14" lengthAdjust="spacing" textLength="184" x="139.25" y="277.8467">OpenWeatherMapService</text><line style="stroke:#181818;stroke-width:0.5;" x1="47" x2="383" y1="289" y2="289"/><ellipse cx="57" cy="302.6484" fill="none" rx="3" ry="3" style="stroke:#038048;stroke-width:1.0;"/><text fill="#000000" font-family="sans-serif" font-size="14" lengthAdjust="spacing" textLength="312" x="66" y="305.9951">OpenWeatherMapApi openWeatherMapApi</text><line style="stroke:#181818;stroke-width:0.5;" x1="47" x2="383" y1="313.2969" y2="313.2969"/><ellipse cx="57" cy="326.9453" fill="#84BE84" rx="3" ry="3" style="stroke:#038048;stroke-width:1.0;"/><text fill="#000000" font-family="sans-serif" font-size="14" lengthAdjust="spacing" textLength="299" x="66" y="330.292">Future&lt;WeatherData&gt; getWeatherData()</text></g><!--class OpenWeatherMapApi--><g id="elem_OpenWeatherMapApi"><rect codeLine="34" fill="#F1F1F1" height="80.5938" id="OpenWeatherMapApi" rx="2.5" ry="2.5" style="stroke:#181818;stroke-width:0.5;" width="373" x="184.5" y="398"/><ellipse cx="289.25" cy="414" fill="#ADD1B2" rx="11" ry="11" style="stroke:#181818;stroke-width:1.0;"/><path d="M291.5938,409.6719 C290.6563,409.2344 290.0625,409.0938 289.1875,409.0938 C286.5625,409.0938 284.5625,411.1719 284.5625,413.8906 L284.5625,415.0156 C284.5625,417.5938 286.6719,419.4844 289.5625,419.4844 C290.7813,419.4844 291.9375,419.1875 292.6875,418.6406 C293.2656,418.2344 293.5938,417.7813 293.5938,417.3906 C293.5938,416.9375 293.2031,416.5469 292.7344,416.5469 C292.5156,416.5469 292.3125,416.625 292.125,416.8125 C291.6719,417.2969 291.6719,417.2969 291.4844,417.3906 C291.0625,417.6563 290.375,417.7813 289.6094,417.7813 C287.5625,417.7813 286.2656,416.6875 286.2656,414.9844 L286.2656,413.8906 C286.2656,412.1094 287.5156,410.7969 289.25,410.7969 C289.8281,410.7969 290.4375,410.9531 290.9063,411.2031 C291.3906,411.4844 291.5625,411.7031 291.6563,412.1094 C291.7188,412.5156 291.75,412.6406 291.8906,412.7656 C292.0313,412.9063 292.2656,413.0156 292.4844,413.0156 C292.75,413.0156 293.0156,412.875 293.1875,412.6563 C293.2969,412.5 293.3281,412.3125 293.3281,411.8906 L293.3281,410.4688 C293.3281,410.0313 293.3125,409.9063 293.2188,409.75 C293.0625,409.4844 292.7813,409.3438 292.4844,409.3438 C292.1875,409.3438 291.9844,409.4375 291.7656,409.75 L291.5938,409.6719 Z " fill="#000000"/><text fill="#000000" font-family="sans-serif" font-size="14" lengthAdjust="spacing" textLength="155" x="309.75" y="418.8467">OpenWeatherMapApi</text><line style="stroke:#181818;stroke-width:0.5;" x1="185.5" x2="556.5" y1="430" y2="430"/><line style="stroke:#181818;stroke-width:0.5;" x1="185.5" x2="556.5" y1="438" y2="438"/><ellipse cx="195.5" cy="451.6484" fill="#84BE84" rx="3" ry="3" style="stroke:#038048;stroke-width:1.0;"/><text fill="#000000" font-family="sans-serif" font-size="14" lengthAdjust="spacing" textLength="347" x="204.5" y="454.9951">Future&lt;Map&lt;String, dynamic&gt;&gt; fetchWeather()</text><ellipse cx="195.5" cy="467.9453" fill="#84BE84" rx="3" ry="3" style="stroke:#038048;stroke-width:1.0;"/><text fill="#000000" font-family="sans-serif" font-size="14" lengthAdjust="spacing" textLength="299" x="204.5" y="471.292">Future&lt;WeatherData&gt; getWeatherData()</text></g><!--class WeatherApi--><g id="elem_WeatherApi"><rect codeLine="23" fill="#F1F1F1" height="64.2969" id="WeatherApi" rx="2.5" ry="2.5" style="stroke:#181818;stroke-width:0.5;" width="325" x="419.5" y="265.5"/><ellipse cx="535.75" cy="281.5" fill="#A9DCDF" rx="11" ry="11" style="stroke:#181818;stroke-width:1.0;"/><path d="M537.8281,283.3125 L538.2188,284.2969 L537.8281,284.2969 C537.375,284.2969 537.2656,284.3125 537.1094,284.4219 C536.8594,284.5781 536.7031,284.8594 536.7031,285.1563 C536.7031,285.4219 536.8438,285.6719 537.0625,285.8281 C537.2031,285.9531 537.4063,286 537.8281,286 L540.1875,286 C540.5469,286 540.7656,285.9688 540.9063,285.875 C541.1563,285.7344 541.3125,285.4375 541.3125,285.1563 C541.3125,284.875 541.1719,284.625 540.9531,284.4688 C540.7813,284.3281 540.625,284.2969 540.1563,284.2969 L536.7656,276.0938 L533.0938,276.0938 C532.6406,276.0938 532.5156,276.1094 532.3594,276.2031 C532.1094,276.375 531.9531,276.6563 531.9531,276.9375 C531.9531,277.2188 532.0938,277.4688 532.3125,277.6406 C532.4844,277.75 532.6563,277.7813 533.0938,277.7813 L534.1719,277.7813 L531.5313,284.2969 C531.1094,284.2969 530.9531,284.3125 530.7969,284.4219 C530.5469,284.5781 530.3906,284.8594 530.3906,285.1563 C530.3906,285.7188 530.7656,286 531.5156,286 L533.7813,286 C534.1406,286 534.3594,285.9688 534.4844,285.875 C534.75,285.7344 534.8906,285.4375 534.8906,285.1563 C534.8906,284.875 534.7656,284.625 534.5469,284.4531 C534.375,284.3281 534.2344,284.2969 533.7813,284.2969 L533.3906,284.2969 L533.7813,283.3125 L537.8281,283.3125 Z M537.125,281.6094 L534.4531,281.6094 L535.7969,278.3438 L537.125,281.6094 Z " fill="#000000"/><text fill="#000000" font-family="sans-serif" font-size="14" font-style="italic" lengthAdjust="spacing" textLength="84" x="556.25" y="286.3467">WeatherApi</text><line style="stroke:#181818;stroke-width:0.5;" x1="420.5" x2="743.5" y1="297.5" y2="297.5"/><line style="stroke:#181818;stroke-width:0.5;" x1="420.5" x2="743.5" y1="305.5" y2="305.5"/><ellipse cx="430.5" cy="319.1484" fill="#84BE84" rx="3" ry="3" style="stroke:#038048;stroke-width:1.0;"/><text fill="#000000" font-family="sans-serif" font-size="14" lengthAdjust="spacing" textLength="299" x="439.5" y="322.4951">Future&lt;WeatherData&gt; getWeatherData()</text></g><!--class WeatherData--><g id="elem_WeatherData"><rect codeLine="41" fill="#F1F1F1" height="113.1875" id="WeatherData" rx="2.5" ry="2.5" style="stroke:#181818;stroke-width:0.5;" width="179" x="305.5" y="84"/><ellipse cx="343.45" cy="100" fill="#ADD1B2" rx="11" ry="11" style="stroke:#181818;stroke-width:1.0;"/><path d="M345.7938,95.6719 C344.8563,95.2344 344.2625,95.0938 343.3875,95.0938 C340.7625,95.0938 338.7625,97.1719 338.7625,99.8906 L338.7625,101.0156 C338.7625,103.5938 340.8719,105.4844 343.7625,105.4844 C344.9813,105.4844 346.1375,105.1875 346.8875,104.6406 C347.4656,104.2344 347.7938,103.7813 347.7938,103.3906 C347.7938,102.9375 347.4031,102.5469 346.9344,102.5469 C346.7156,102.5469 346.5125,102.625 346.325,102.8125 C345.8719,103.2969 345.8719,103.2969 345.6844,103.3906 C345.2625,103.6563 344.575,103.7813 343.8094,103.7813 C341.7625,103.7813 340.4656,102.6875 340.4656,100.9844 L340.4656,99.8906 C340.4656,98.1094 341.7156,96.7969 343.45,96.7969 C344.0281,96.7969 344.6375,96.9531 345.1063,97.2031 C345.5906,97.4844 345.7625,97.7031 345.8563,98.1094 C345.9188,98.5156 345.95,98.6406 346.0906,98.7656 C346.2313,98.9063 346.4656,99.0156 346.6844,99.0156 C346.95,99.0156 347.2156,98.875 347.3875,98.6563 C347.4969,98.5 347.5281,98.3125 347.5281,97.8906 L347.5281,96.4688 C347.5281,96.0313 347.5125,95.9063 347.4188,95.75 C347.2625,95.4844 346.9813,95.3438 346.6844,95.3438 C346.3875,95.3438 346.1844,95.4375 345.9656,95.75 L345.7938,95.6719 Z " fill="#000000"/><text fill="#000000" font-family="sans-serif" font-size="14" lengthAdjust="spacing" textLength="96" x="362.55" y="104.8467">WeatherData</text><line style="stroke:#181818;stroke-width:0.5;" x1="306.5" x2="483.5" y1="116" y2="116"/><ellipse cx="316.5" cy="129.6484" fill="none" rx="3" ry="3" style="stroke:#038048;stroke-width:1.0;"/><text fill="#000000" font-family="sans-serif" font-size="14" lengthAdjust="spacing" textLength="113" x="325.5" y="132.9951">String? location</text><ellipse cx="316.5" cy="145.9453" fill="none" rx="3" ry="3" style="stroke:#038048;stroke-width:1.0;"/><text fill="#000000" font-family="sans-serif" font-size="14" lengthAdjust="spacing" textLength="153" x="325.5" y="149.292">double? temperature</text><ellipse cx="316.5" cy="162.2422" fill="none" rx="3" ry="3" style="stroke:#038048;stroke-width:1.0;"/><text fill="#000000" font-family="sans-serif" font-size="14" lengthAdjust="spacing" textLength="137" x="325.5" y="165.5889">double? windspeed</text><ellipse cx="316.5" cy="178.5391" fill="none" rx="3" ry="3" style="stroke:#038048;stroke-width:1.0;"/><text fill="#000000" font-family="sans-serif" font-size="14" lengthAdjust="spacing" textLength="102" x="325.5" y="181.8857">String? source</text><line style="stroke:#181818;stroke-width:0.5;" x1="306.5" x2="483.5" y1="189.1875" y2="189.1875"/></g><!--reverse link OpenMeteoService to OpenMeteoApi--><g id="link_OpenMeteoService_OpenMeteoApi"><path codeLine="12" d="M907.765,349.123 C896.954,365.111 885.167,382.54 874.941,397.662 " fill="none" id="OpenMeteoService-backto-OpenMeteoApi" style="stroke:#181818;stroke-width:1.0;"/><polygon fill="none" points="915.063,338.332,908.3886,341.0618,908.3413,348.2728,915.0157,345.5429,915.063,338.332" style="stroke:#181818;stroke-width:1.0;"/></g><!--reverse link WeatherService to OpenMeteoService--><g id="link_WeatherService_OpenMeteoService"><path codeLine="13" d="M851.289,188.345 C869.646,210.231 891.264,236.007 908.791,256.904 " fill="none" id="WeatherService-backto-OpenMeteoService" style="stroke:#181818;stroke-width:1.0;"/><polygon fill="none" points="845.796,192.689,838.307,172.867,856.523,183.692,845.796,192.689" style="stroke:#181818;stroke-width:1.0;"/></g><!--reverse link OpenWeatherMapService to OpenWeatherMapApi--><g id="link_OpenWeatherMapService_OpenWeatherMapApi"><path codeLine="20" d="M269.538,347.095 C288.186,363.71 308.806,382.084 326.56,397.903 " fill="none" id="OpenWeatherMapService-backto-OpenWeatherMapApi" style="stroke:#181818;stroke-width:1.0;"/><polygon fill="none" points="259.703,338.332,261.5215,345.31,268.6622,346.3153,266.8437,339.3373,259.703,338.332" style="stroke:#181818;stroke-width:1.0;"/></g><!--reverse link WeatherService to OpenWeatherMapService--><g id="link_WeatherService_OpenWeatherMapService"><path codeLine="21" d="M672.875,177.621 C581.28,201.402 461.358,232.538 367.22,256.979 " fill="none" id="WeatherService-backto-OpenWeatherMapService" style="stroke:#181818;stroke-width:1.0;"/><polygon fill="none" points="671.148,170.838,692.265,172.587,674.666,184.388,671.148,170.838" style="stroke:#181818;stroke-width:1.0;"/></g><!--reverse link WeatherApi to OpenMeteoApi--><g id="link_WeatherApi_OpenMeteoApi"><path codeLine="32" d="M659.276,338.881 C694.788,357.438 736.771,379.376 772.112,397.844 " fill="none" id="WeatherApi-backto-OpenMeteoApi" style="stroke:#181818;stroke-width:1.0;"/><polygon fill="none" points="655.848,344.988,641.365,329.521,662.332,332.58,655.848,344.988" style="stroke:#181818;stroke-width:1.0;"/></g><!--reverse link WeatherApi to OpenWeatherMapApi--><g id="link_WeatherApi_OpenWeatherMapApi"><path codeLine="39" d="M517.973,340.679 C490.4,358.843 458.331,379.969 431.197,397.844 " fill="none" id="WeatherApi-backto-OpenWeatherMapApi" style="stroke:#181818;stroke-width:1.0;"/><polygon fill="none" points="514.358,334.678,534.91,329.521,522.059,346.369,514.358,334.678" style="stroke:#181818;stroke-width:1.0;"/></g><!--SRC=[tLN1JeD04BtlLqnwqcZzW0sXCJ7U6WySF3R3Cj9DABlP7MoCzjy50GNnqiNsq1EPjy1xRzuCU68eSKVUegA4B3fauq1A8J3rx50ng0AzXqM6ZZTxGjwIswHEPpb9sLvx-AwvHyhdjah8lMf52tWN03UF5LUEekxi0HbZo8a7zTMrE0XnDDkJfN9DJ6RCzmtVMmrcK1mZPfOCirm6-QWrBiICTaSVWSJz6m93w7IiqKwJ-3dhunWX9ypa3rK1mOpKdZsTgOT_MC_6oBbMSy9LMuaIThhCRo5xgxz0MiKnl12hRKTRKvvcA8RsWrVbQmhchiabTUNNWeZGgMp4TqrfEx62mYXaRSe6oqoL5hG2ffsb-bzLjs48xtMPUKkK3P_tfdAAnE4J]--></g></svg>